<?xml version="1.0" encoding="utf-8"?>
<svg xmlns="http://www.w3.org/2000/svg" xmlns:xlink="http://www.w3.org/1999/xlink" xml:space="preserve" width="264" height="264" viewBox="0 0 264 264"><rect width="264" height="264" fill="#ffffff" x="0" y="0"/><g fill="#000000">
<g transform="translate(96,16) scale(1.3733333333333)"><rect width="6" height="6"/></g>
<g transform="translate(136,16) scale(1.3733333333333)"><rect width="6" height="6"/></g>
<g transform="translate(144,16) scale(1.3733333333333)"><rect width="6" height="6"/></g>
<g transform="translate(152,16) scale(1.3733333333333)"><rect width="6" height="6"/></g>
<g transform="translate(160,16) scale(1.3733333333333)"><rect width="6" height="6"/></g>
<g transform="translate(176,16) scale(1.3733333333333)"><rect width="6" height="6"/></g>
<g transform="translate(88,24) scale(1.3733333333333)"><rect width="6" height="6"/></g>
<g transform="translate(104,24) scale(1.3733333333333)"><rect width="6" height="6"/></g>
<g transform="translate(152,24) scale(1.3733333333333)"><rect width="6" height="6"/></g>
<g transform="translate(160,24) scale(1.3733333333333)"><rect width="6" height="6"/></g>
<g transform="translate(80,32) scale(1.3733333333333)"><rect width="6" height="6"/></g>
<g transform="translate(88,32) scale(1.3733333333333)"><rect width="6" height="6"/></g>
<g transform="translate(104,32) scale(1.3733333333333)"><rect width="6" height="6"/></g>
<g transform="translate(128,32) scale(1.3733333333333)"><rect width="6" height="6"/></g>
<g transform="translate(144,32) scale(1.3733333333333)"><rect width="6" height="6"/></g>
<g transform="translate(152,32) scale(1.3733333333333)"><rect width="6" height="6"/></g>
<g transform="translate(80,40) scale(1.3733333333333)"><rect width="6" height="6"/></g>
<g transform="translate(112,40) scale(1.3733333333333)"><rect width="6" height="6"/></g>
<g transform="translate(80,48) scale(1.3733333333333)"><rect width="6" height="6"/></g>
<g transform="translate(120,48) scale(1.3733333333333)"><rect width="6" height="6"/></g>
<g transform="translate(128,48) scale(1.3733333333333)"><rect width="6" height="6"/></g>
<g transform="translate(136,48) scale(1.3733333333333)"><rect width="6" height="6"/></g>
<g transform="translate(160,48) scale(1.3733333333333)"><rect width="6" height="6"/></g>
<g transform="translate(168,48) scale(1.3733333333333)"><rect width="6" height="6"/></g>
<g transform="translate(80,56) scale(1.3733333333333)"><rect width="6" height="6"/></g>
<g transform="translate(96,56) scale(1.3733333333333)"><rect width="6" height="6"/></g>
<g transform="translate(104,56) scale(1.3733333333333)"><rect width="6" height="6"/></g>
<g transform="translate(112,56) scale(1.3733333333333)"><rect width="6" height="6"/></g>
<g transform="translate(120,56) scale(1.3733333333333)"><rect width="6" height="6"/></g>
<g transform="translate(128,56) scale(1.3733333333333)"><rect width="6" height="6"/></g>
<g transform="translate(136,56) scale(1.3733333333333)"><rect width="6" height="6"/></g>
<g transform="translate(152,56) scale(1.3733333333333)"><rect width="6" height="6"/></g>
<g transform="translate(176,56) scale(1.3733333333333)"><rect width="6" height="6"/></g>
<g transform="translate(80,64) scale(1.3733333333333)"><rect width="6" height="6"/></g>
<g transform="translate(96,64) scale(1.3733333333333)"><rect width="6" height="6"/></g>
<g transform="translate(112,64) scale(1.3733333333333)"><rect width="6" height="6"/></g>
<g transform="translate(128,64) scale(1.3733333333333)"><rect width="6" height="6"/></g>
<g transform="translate(144,64) scale(1.3733333333333)"><rect width="6" height="6"/></g>
<g transform="translate(160,64) scale(1.3733333333333)"><rect width="6" height="6"/></g>
<g transform="translate(176,64) scale(1.3733333333333)"><rect width="6" height="6"/></g>
<g transform="translate(80,72) scale(1.3733333333333)"><rect width="6" height="6"/></g>
<g transform="translate(96,72) scale(1.3733333333333)"><rect width="6" height="6"/></g>
<g transform="translate(104,72) scale(1.3733333333333)"><rect width="6" height="6"/></g>
<g transform="translate(120,72) scale(1.3733333333333)"><rect width="6" height="6"/></g>
<g transform="translate(136,72) scale(1.3733333333333)"><rect width="6" height="6"/></g>
<g transform="translate(152,72) scale(1.3733333333333)"><rect width="6" height="6"/></g>
<g transform="translate(160,72) scale(1.3733333333333)"><rect width="6" height="6"/></g>
<g transform="translate(168,72) scale(1.3733333333333)"><rect width="6" height="6"/></g>
<g transform="translate(176,72) scale(1.3733333333333)"><rect width="6" height="6"/></g>
<g transform="translate(16,80) scale(1.3733333333333)"><rect width="6" height="6"/></g>
<g transform="translate(32,80) scale(1.3733333333333)"><rect width="6" height="6"/></g>
<g transform="translate(40,80) scale(1.3733333333333)"><rect width="6" height="6"/></g>
<g transform="translate(48,80) scale(1.3733333333333)"><rect width="6" height="6"/></g>
<g transform="translate(56,80) scale(1.3733333333333)"><rect width="6" height="6"/></g>
<g transform="translate(64,80) scale(1.3733333333333)"><rect width="6" height="6"/></g>
<g transform="translate(88,80) scale(1.3733333333333)"><rect width="6" height="6"/></g>
<g transform="translate(96,80) scale(1.3733333333333)"><rect width="6" height="6"/></g>
<g transform="translate(104,80) scale(1.3733333333333)"><rect width="6" height="6"/></g>
<g transform="translate(112,80) scale(1.3733333333333)"><rect width="6" height="6"/></g>
<g transform="translate(128,80) scale(1.3733333333333)"><rect width="6" height="6"/></g>
<g transform="translate(136,80) scale(1.3733333333333)"><rect width="6" height="6"/></g>
<g transform="translate(160,80) scale(1.3733333333333)"><rect width="6" height="6"/></g>
<g transform="translate(192,80) scale(1.3733333333333)"><rect width="6" height="6"/></g>
<g transform="translate(200,80) scale(1.3733333333333)"><rect width="6" height="6"/></g>
<g transform="translate(208,80) scale(1.3733333333333)"><rect width="6" height="6"/></g>
<g transform="translate(216,80) scale(1.3733333333333)"><rect width="6" height="6"/></g>
<g transform="translate(224,80) scale(1.3733333333333)"><rect width="6" height="6"/></g>
<g transform="translate(16,88) scale(1.3733333333333)"><rect width="6" height="6"/></g>
<g transform="translate(24,88) scale(1.3733333333333)"><rect width="6" height="6"/></g>
<g transform="translate(56,88) scale(1.3733333333333)"><rect width="6" height="6"/></g>
<g transform="translate(112,88) scale(1.3733333333333)"><rect width="6" height="6"/></g>
<g transform="translate(136,88) scale(1.3733333333333)"><rect width="6" height="6"/></g>
<g transform="translate(152,88) scale(1.3733333333333)"><rect width="6" height="6"/></g>
<g transform="translate(160,88) scale(1.3733333333333)"><rect width="6" height="6"/></g>
<g transform="translate(168,88) scale(1.3733333333333)"><rect width="6" height="6"/></g>
<g transform="translate(176,88) scale(1.3733333333333)"><rect width="6" height="6"/></g>
<g transform="translate(192,88) scale(1.3733333333333)"><rect width="6" height="6"/></g>
<g transform="translate(208,88) scale(1.3733333333333)"><rect width="6" height="6"/></g>
<g transform="translate(216,88) scale(1.3733333333333)"><rect width="6" height="6"/></g>
<g transform="translate(224,88) scale(1.3733333333333)"><rect width="6" height="6"/></g>
<g transform="translate(232,88) scale(1.3733333333333)"><rect width="6" height="6"/></g>
<g transform="translate(24,96) scale(1.3733333333333)"><rect width="6" height="6"/></g>
<g transform="translate(40,96) scale(1.3733333333333)"><rect width="6" height="6"/></g>
<g transform="translate(64,96) scale(1.3733333333333)"><rect width="6" height="6"/></g>
<g transform="translate(72,96) scale(1.3733333333333)"><rect width="6" height="6"/></g>
<g transform="translate(88,96) scale(1.3733333333333)"><rect width="6" height="6"/></g>
<g transform="translate(96,96) scale(1.3733333333333)"><rect width="6" height="6"/></g>
<g transform="translate(104,96) scale(1.3733333333333)"><rect width="6" height="6"/></g>
<g transform="translate(144,96) scale(1.3733333333333)"><rect width="6" height="6"/></g>
<g transform="translate(152,96) scale(1.3733333333333)"><rect width="6" height="6"/></g>
<g transform="translate(176,96) scale(1.3733333333333)"><rect width="6" height="6"/></g>
<g transform="translate(216,96) scale(1.3733333333333)"><rect width="6" height="6"/></g>
<g transform="translate(16,104) scale(1.3733333333333)"><rect width="6" height="6"/></g>
<g transform="translate(96,104) scale(1.3733333333333)"><rect width="6" height="6"/></g>
<g transform="translate(104,104) scale(1.3733333333333)"><rect width="6" height="6"/></g>
<g transform="translate(112,104) scale(1.3733333333333)"><rect width="6" height="6"/></g>
<g transform="translate(128,104) scale(1.3733333333333)"><rect width="6" height="6"/></g>
<g transform="translate(136,104) scale(1.3733333333333)"><rect width="6" height="6"/></g>
<g transform="translate(168,104) scale(1.3733333333333)"><rect width="6" height="6"/></g>
<g transform="translate(192,104) scale(1.3733333333333)"><rect width="6" height="6"/></g>
<g transform="translate(200,104) scale(1.3733333333333)"><rect width="6" height="6"/></g>
<g transform="translate(208,104) scale(1.3733333333333)"><rect width="6" height="6"/></g>
<g transform="translate(216,104) scale(1.3733333333333)"><rect width="6" height="6"/></g>
<g transform="translate(240,104) scale(1.3733333333333)"><rect width="6" height="6"/></g>
<g transform="translate(16,112) scale(1.3733333333333)"><rect width="6" height="6"/></g>
<g transform="translate(40,112) scale(1.3733333333333)"><rect width="6" height="6"/></g>
<g transform="translate(48,112) scale(1.3733333333333)"><rect width="6" height="6"/></g>
<g transform="translate(64,112) scale(1.3733333333333)"><rect width="6" height="6"/></g>
<g transform="translate(96,112) scale(1.3733333333333)"><rect width="6" height="6"/></g>
<g transform="translate(104,112) scale(1.3733333333333)"><rect width="6" height="6"/></g>
<g transform="translate(112,112) scale(1.3733333333333)"><rect width="6" height="6"/></g>
<g transform="translate(160,112) scale(1.3733333333333)"><rect width="6" height="6"/></g>
<g transform="translate(176,112) scale(1.3733333333333)"><rect width="6" height="6"/></g>
<g transform="translate(200,112) scale(1.3733333333333)"><rect width="6" height="6"/></g>
<g transform="translate(216,112) scale(1.3733333333333)"><rect width="6" height="6"/></g>
<g transform="translate(240,112) scale(1.3733333333333)"><rect width="6" height="6"/></g>
<g transform="translate(16,120) scale(1.3733333333333)"><rect width="6" height="6"/></g>
<g transform="translate(32,120) scale(1.3733333333333)"><rect width="6" height="6"/></g>
<g transform="translate(40,120) scale(1.3733333333333)"><rect width="6" height="6"/></g>
<g transform="translate(56,120) scale(1.3733333333333)"><rect width="6" height="6"/></g>
<g transform="translate(72,120) scale(1.3733333333333)"><rect width="6" height="6"/></g>
<g transform="translate(104,120) scale(1.3733333333333)"><rect width="6" height="6"/></g>
<g transform="translate(112,120) scale(1.3733333333333)"><rect width="6" height="6"/></g>
<g transform="translate(120,120) scale(1.3733333333333)"><rect width="6" height="6"/></g>
<g transform="translate(128,120) scale(1.3733333333333)"><rect width="6" height="6"/></g>
<g transform="translate(136,120) scale(1.3733333333333)"><rect width="6" height="6"/></g>
<g transform="translate(160,120) scale(1.3733333333333)"><rect width="6" height="6"/></g>
<g transform="translate(168,120) scale(1.3733333333333)"><rect width="6" height="6"/></g>
<g transform="translate(176,120) scale(1.3733333333333)"><rect width="6" height="6"/></g>
<g transform="translate(184,120) scale(1.3733333333333)"><rect width="6" height="6"/></g>
<g transform="translate(208,120) scale(1.3733333333333)"><rect width="6" height="6"/></g>
<g transform="translate(224,120) scale(1.3733333333333)"><rect width="6" height="6"/></g>
<g transform="translate(232,120) scale(1.3733333333333)"><rect width="6" height="6"/></g>
<g transform="translate(240,120) scale(1.3733333333333)"><rect width="6" height="6"/></g>
<g transform="translate(24,128) scale(1.3733333333333)"><rect width="6" height="6"/></g>
<g transform="translate(32,128) scale(1.3733333333333)"><rect width="6" height="6"/></g>
<g transform="translate(40,128) scale(1.3733333333333)"><rect width="6" height="6"/></g>
<g transform="translate(64,128) scale(1.3733333333333)"><rect width="6" height="6"/></g>
<g transform="translate(72,128) scale(1.3733333333333)"><rect width="6" height="6"/></g>
<g transform="translate(104,128) scale(1.3733333333333)"><rect width="6" height="6"/></g>
<g transform="translate(112,128) scale(1.3733333333333)"><rect width="6" height="6"/></g>
<g transform="translate(120,128) scale(1.3733333333333)"><rect width="6" height="6"/></g>
<g transform="translate(128,128) scale(1.3733333333333)"><rect width="6" height="6"/></g>
<g transform="translate(136,128) scale(1.3733333333333)"><rect width="6" height="6"/></g>
<g transform="translate(160,128) scale(1.3733333333333)"><rect width="6" height="6"/></g>
<g transform="translate(176,128) scale(1.3733333333333)"><rect width="6" height="6"/></g>
<g transform="translate(184,128) scale(1.3733333333333)"><rect width="6" height="6"/></g>
<g transform="translate(192,128) scale(1.3733333333333)"><rect width="6" height="6"/></g>
<g transform="translate(200,128) scale(1.3733333333333)"><rect width="6" height="6"/></g>
<g transform="translate(208,128) scale(1.3733333333333)"><rect width="6" height="6"/></g>
<g transform="translate(216,128) scale(1.3733333333333)"><rect width="6" height="6"/></g>
<g transform="translate(24,136) scale(1.3733333333333)"><rect width="6" height="6"/></g>
<g transform="translate(48,136) scale(1.3733333333333)"><rect width="6" height="6"/></g>
<g transform="translate(72,136) scale(1.3733333333333)"><rect width="6" height="6"/></g>
<g transform="translate(80,136) scale(1.3733333333333)"><rect width="6" height="6"/></g>
<g transform="translate(120,136) scale(1.3733333333333)"><rect width="6" height="6"/></g>
<g transform="translate(152,136) scale(1.3733333333333)"><rect width="6" height="6"/></g>
<g transform="translate(160,136) scale(1.3733333333333)"><rect width="6" height="6"/></g>
<g transform="translate(168,136) scale(1.3733333333333)"><rect width="6" height="6"/></g>
<g transform="translate(184,136) scale(1.3733333333333)"><rect width="6" height="6"/></g>
<g transform="translate(216,136) scale(1.3733333333333)"><rect width="6" height="6"/></g>
<g transform="translate(16,144) scale(1.3733333333333)"><rect width="6" height="6"/></g>
<g transform="translate(24,144) scale(1.3733333333333)"><rect width="6" height="6"/></g>
<g transform="translate(40,144) scale(1.3733333333333)"><rect width="6" height="6"/></g>
<g transform="translate(64,144) scale(1.3733333333333)"><rect width="6" height="6"/></g>
<g transform="translate(72,144) scale(1.3733333333333)"><rect width="6" height="6"/></g>
<g transform="translate(96,144) scale(1.3733333333333)"><rect width="6" height="6"/></g>
<g transform="translate(104,144) scale(1.3733333333333)"><rect width="6" height="6"/></g>
<g transform="translate(112,144) scale(1.3733333333333)"><rect width="6" height="6"/></g>
<g transform="translate(128,144) scale(1.3733333333333)"><rect width="6" height="6"/></g>
<g transform="translate(152,144) scale(1.3733333333333)"><rect width="6" height="6"/></g>
<g transform="translate(160,144) scale(1.3733333333333)"><rect width="6" height="6"/></g>
<g transform="translate(168,144) scale(1.3733333333333)"><rect width="6" height="6"/></g>
<g transform="translate(200,144) scale(1.3733333333333)"><rect width="6" height="6"/></g>
<g transform="translate(208,144) scale(1.3733333333333)"><rect width="6" height="6"/></g>
<g transform="translate(216,144) scale(1.3733333333333)"><rect width="6" height="6"/></g>
<g transform="translate(224,144) scale(1.3733333333333)"><rect width="6" height="6"/></g>
<g transform="translate(232,144) scale(1.3733333333333)"><rect width="6" height="6"/></g>
<g transform="translate(16,152) scale(1.3733333333333)"><rect width="6" height="6"/></g>
<g transform="translate(40,152) scale(1.3733333333333)"><rect width="6" height="6"/></g>
<g transform="translate(56,152) scale(1.3733333333333)"><rect width="6" height="6"/></g>
<g transform="translate(72,152) scale(1.3733333333333)"><rect width="6" height="6"/></g>
<g transform="translate(80,152) scale(1.3733333333333)"><rect width="6" height="6"/></g>
<g transform="translate(96,152) scale(1.3733333333333)"><rect width="6" height="6"/></g>
<g transform="translate(112,152) scale(1.3733333333333)"><rect width="6" height="6"/></g>
<g transform="translate(144,152) scale(1.3733333333333)"><rect width="6" height="6"/></g>
<g transform="translate(152,152) scale(1.3733333333333)"><rect width="6" height="6"/></g>
<g transform="translate(168,152) scale(1.3733333333333)"><rect width="6" height="6"/></g>
<g transform="translate(176,152) scale(1.3733333333333)"><rect width="6" height="6"/></g>
<g transform="translate(192,152) scale(1.3733333333333)"><rect width="6" height="6"/></g>
<g transform="translate(200,152) scale(1.3733333333333)"><rect width="6" height="6"/></g>
<g transform="translate(208,152) scale(1.3733333333333)"><rect width="6" height="6"/></g>
<g transform="translate(16,160) scale(1.3733333333333)"><rect width="6" height="6"/></g>
<g transform="translate(56,160) scale(1.3733333333333)"><rect width="6" height="6"/></g>
<g transform="translate(64,160) scale(1.3733333333333)"><rect width="6" height="6"/></g>
<g transform="translate(72,160) scale(1.3733333333333)"><rect width="6" height="6"/></g>
<g transform="translate(80,160) scale(1.3733333333333)"><rect width="6" height="6"/></g>
<g transform="translate(88,160) scale(1.3733333333333)"><rect width="6" height="6"/></g>
<g transform="translate(96,160) scale(1.3733333333333)"><rect width="6" height="6"/></g>
<g transform="translate(136,160) scale(1.3733333333333)"><rect width="6" height="6"/></g>
<g transform="translate(160,160) scale(1.3733333333333)"><rect width="6" height="6"/></g>
<g transform="translate(176,160) scale(1.3733333333333)"><rect width="6" height="6"/></g>
<g transform="translate(184,160) scale(1.3733333333333)"><rect width="6" height="6"/></g>
<g transform="translate(200,160) scale(1.3733333333333)"><rect width="6" height="6"/></g>
<g transform="translate(208,160) scale(1.3733333333333)"><rect width="6" height="6"/></g>
<g transform="translate(16,168) scale(1.3733333333333)"><rect width="6" height="6"/></g>
<g transform="translate(56,168) scale(1.3733333333333)"><rect width="6" height="6"/></g>
<g transform="translate(72,168) scale(1.3733333333333)"><rect width="6" height="6"/></g>
<g transform="translate(88,168) scale(1.3733333333333)"><rect width="6" height="6"/></g>
<g transform="translate(96,168) scale(1.3733333333333)"><rect width="6" height="6"/></g>
<g transform="translate(128,168) scale(1.3733333333333)"><rect width="6" height="6"/></g>
<g transform="translate(136,168) scale(1.3733333333333)"><rect width="6" height="6"/></g>
<g transform="translate(168,168) scale(1.3733333333333)"><rect width="6" height="6"/></g>
<g transform="translate(192,168) scale(1.3733333333333)"><rect width="6" height="6"/></g>
<g transform="translate(208,168) scale(1.3733333333333)"><rect width="6" height="6"/></g>
<g transform="translate(240,168) scale(1.3733333333333)"><rect width="6" height="6"/></g>
<g transform="translate(16,176) scale(1.3733333333333)"><rect width="6" height="6"/></g>
<g transform="translate(32,176) scale(1.3733333333333)"><rect width="6" height="6"/></g>
<g transform="translate(40,176) scale(1.3733333333333)"><rect width="6" height="6"/></g>
<g transform="translate(56,176) scale(1.3733333333333)"><rect width="6" height="6"/></g>
<g transform="translate(64,176) scale(1.3733333333333)"><rect width="6" height="6"/></g>
<g transform="translate(72,176) scale(1.3733333333333)"><rect width="6" height="6"/></g>
<g transform="translate(80,176) scale(1.3733333333333)"><rect width="6" height="6"/></g>
<g transform="translate(96,176) scale(1.3733333333333)"><rect width="6" height="6"/></g>
<g transform="translate(104,176) scale(1.3733333333333)"><rect width="6" height="6"/></g>
<g transform="translate(152,176) scale(1.3733333333333)"><rect width="6" height="6"/></g>
<g transform="translate(160,176) scale(1.3733333333333)"><rect width="6" height="6"/></g>
<g transform="translate(176,176) scale(1.3733333333333)"><rect width="6" height="6"/></g>
<g transform="translate(184,176) scale(1.3733333333333)"><rect width="6" height="6"/></g>
<g transform="translate(192,176) scale(1.3733333333333)"><rect width="6" height="6"/></g>
<g transform="translate(200,176) scale(1.3733333333333)"><rect width="6" height="6"/></g>
<g transform="translate(208,176) scale(1.3733333333333)"><rect width="6" height="6"/></g>
<g transform="translate(216,176) scale(1.3733333333333)"><rect width="6" height="6"/></g>
<g transform="translate(224,176) scale(1.3733333333333)"><rect width="6" height="6"/></g>
<g transform="translate(232,176) scale(1.3733333333333)"><rect width="6" height="6"/></g>
<g transform="translate(80,184) scale(1.3733333333333)"><rect width="6" height="6"/></g>
<g transform="translate(104,184) scale(1.3733333333333)"><rect width="6" height="6"/></g>
<g transform="translate(112,184) scale(1.3733333333333)"><rect width="6" height="6"/></g>
<g transform="translate(120,184) scale(1.3733333333333)"><rect width="6" height="6"/></g>
<g transform="translate(128,184) scale(1.3733333333333)"><rect width="6" height="6"/></g>
<g transform="translate(136,184) scale(1.3733333333333)"><rect width="6" height="6"/></g>
<g transform="translate(152,184) scale(1.3733333333333)"><rect width="6" height="6"/></g>
<g transform="translate(160,184) scale(1.3733333333333)"><rect width="6" height="6"/></g>
<g transform="translate(176,184) scale(1.3733333333333)"><rect width="6" height="6"/></g>
<g transform="translate(208,184) scale(1.3733333333333)"><rect width="6" height="6"/></g>
<g transform="translate(240,184) scale(1.3733333333333)"><rect width="6" height="6"/></g>
<g transform="translate(88,192) scale(1.3733333333333)"><rect width="6" height="6"/></g>
<g transform="translate(104,192) scale(1.3733333333333)"><rect width="6" height="6"/></g>
<g transform="translate(120,192) scale(1.3733333333333)"><rect width="6" height="6"/></g>
<g transform="translate(128,192) scale(1.3733333333333)"><rect width="6" height="6"/></g>
<g transform="translate(136,192) scale(1.3733333333333)"><rect width="6" height="6"/></g>
<g transform="translate(144,192) scale(1.3733333333333)"><rect width="6" height="6"/></g>
<g transform="translate(176,192) scale(1.3733333333333)"><rect width="6" height="6"/></g>
<g transform="translate(192,192) scale(1.3733333333333)"><rect width="6" height="6"/></g>
<g transform="translate(208,192) scale(1.3733333333333)"><rect width="6" height="6"/></g>
<g transform="translate(216,192) scale(1.3733333333333)"><rect width="6" height="6"/></g>
<g transform="translate(232,192) scale(1.3733333333333)"><rect width="6" height="6"/></g>
<g transform="translate(80,200) scale(1.3733333333333)"><rect width="6" height="6"/></g>
<g transform="translate(88,200) scale(1.3733333333333)"><rect width="6" height="6"/></g>
<g transform="translate(96,200) scale(1.3733333333333)"><rect width="6" height="6"/></g>
<g transform="translate(112,200) scale(1.3733333333333)"><rect width="6" height="6"/></g>
<g transform="translate(120,200) scale(1.3733333333333)"><rect width="6" height="6"/></g>
<g transform="translate(136,200) scale(1.3733333333333)"><rect width="6" height="6"/></g>
<g transform="translate(144,200) scale(1.3733333333333)"><rect width="6" height="6"/></g>
<g transform="translate(168,200) scale(1.3733333333333)"><rect width="6" height="6"/></g>
<g transform="translate(176,200) scale(1.3733333333333)"><rect width="6" height="6"/></g>
<g transform="translate(208,200) scale(1.3733333333333)"><rect width="6" height="6"/></g>
<g transform="translate(216,200) scale(1.3733333333333)"><rect width="6" height="6"/></g>
<g transform="translate(80,208) scale(1.3733333333333)"><rect width="6" height="6"/></g>
<g transform="translate(88,208) scale(1.3733333333333)"><rect width="6" height="6"/></g>
<g transform="translate(112,208) scale(1.3733333333333)"><rect width="6" height="6"/></g>
<g transform="translate(128,208) scale(1.3733333333333)"><rect width="6" height="6"/></g>
<g transform="translate(160,208) scale(1.3733333333333)"><rect width="6" height="6"/></g>
<g transform="translate(176,208) scale(1.3733333333333)"><rect width="6" height="6"/></g>
<g transform="translate(184,208) scale(1.3733333333333)"><rect width="6" height="6"/></g>
<g transform="translate(192,208) scale(1.3733333333333)"><rect width="6" height="6"/></g>
<g transform="translate(200,208) scale(1.3733333333333)"><rect width="6" height="6"/></g>
<g transform="translate(208,208) scale(1.3733333333333)"><rect width="6" height="6"/></g>
<g transform="translate(216,208) scale(1.3733333333333)"><rect width="6" height="6"/></g>
<g transform="translate(80,216) scale(1.3733333333333)"><rect width="6" height="6"/></g>
<g transform="translate(96,216) scale(1.3733333333333)"><rect width="6" height="6"/></g>
<g transform="translate(136,216) scale(1.3733333333333)"><rect width="6" height="6"/></g>
<g transform="translate(160,216) scale(1.3733333333333)"><rect width="6" height="6"/></g>
<g transform="translate(168,216) scale(1.3733333333333)"><rect width="6" height="6"/></g>
<g transform="translate(176,216) scale(1.3733333333333)"><rect width="6" height="6"/></g>
<g transform="translate(200,216) scale(1.3733333333333)"><rect width="6" height="6"/></g>
<g transform="translate(80,224) scale(1.3733333333333)"><rect width="6" height="6"/></g>
<g transform="translate(104,224) scale(1.3733333333333)"><rect width="6" height="6"/></g>
<g transform="translate(112,224) scale(1.3733333333333)"><rect width="6" height="6"/></g>
<g transform="translate(152,224) scale(1.3733333333333)"><rect width="6" height="6"/></g>
<g transform="translate(176,224) scale(1.3733333333333)"><rect width="6" height="6"/></g>
<g transform="translate(184,224) scale(1.3733333333333)"><rect width="6" height="6"/></g>
<g transform="translate(200,224) scale(1.3733333333333)"><rect width="6" height="6"/></g>
<g transform="translate(208,224) scale(1.3733333333333)"><rect width="6" height="6"/></g>
<g transform="translate(232,224) scale(1.3733333333333)"><rect width="6" height="6"/></g>
<g transform="translate(88,232) scale(1.3733333333333)"><rect width="6" height="6"/></g>
<g transform="translate(104,232) scale(1.3733333333333)"><rect width="6" height="6"/></g>
<g transform="translate(112,232) scale(1.3733333333333)"><rect width="6" height="6"/></g>
<g transform="translate(120,232) scale(1.3733333333333)"><rect width="6" height="6"/></g>
<g transform="translate(136,232) scale(1.3733333333333)"><rect width="6" height="6"/></g>
<g transform="translate(152,232) scale(1.3733333333333)"><rect width="6" height="6"/></g>
<g transform="translate(160,232) scale(1.3733333333333)"><rect width="6" height="6"/></g>
<g transform="translate(176,232) scale(1.3733333333333)"><rect width="6" height="6"/></g>
<g transform="translate(184,232) scale(1.3733333333333)"><rect width="6" height="6"/></g>
<g transform="translate(192,232) scale(1.3733333333333)"><rect width="6" height="6"/></g>
<g transform="translate(200,232) scale(1.3733333333333)"><rect width="6" height="6"/></g>
<g transform="translate(208,232) scale(1.3733333333333)"><rect width="6" height="6"/></g>
<g transform="translate(216,232) scale(1.3733333333333)"><rect width="6" height="6"/></g>
<g transform="translate(232,232) scale(1.3733333333333)"><rect width="6" height="6"/></g>
<g transform="translate(80,240) scale(1.3733333333333)"><rect width="6" height="6"/></g>
<g transform="translate(88,240) scale(1.3733333333333)"><rect width="6" height="6"/></g>
<g transform="translate(120,240) scale(1.3733333333333)"><rect width="6" height="6"/></g>
<g transform="translate(128,240) scale(1.3733333333333)"><rect width="6" height="6"/></g>
<g transform="translate(136,240) scale(1.3733333333333)"><rect width="6" height="6"/></g>
<g transform="translate(160,240) scale(1.3733333333333)"><rect width="6" height="6"/></g>
<g transform="translate(168,240) scale(1.3733333333333)"><rect width="6" height="6"/></g>
<g transform="translate(184,240) scale(1.3733333333333)"><rect width="6" height="6"/></g>
<g transform="translate(208,240) scale(1.3733333333333)"><rect width="6" height="6"/></g>
<g transform="translate(216,240) scale(1.3733333333333)"><rect width="6" height="6"/></g>
<g transform="translate(224,240) scale(1.3733333333333)"><rect width="6" height="6"/></g>
<g transform="translate(16,16)"><g transform="scale(4)"><path d="M0,0v14h14V0H0z M12,12H2V2h10V12z"/></g></g>
<g transform="translate(192,16)"><g transform="scale(4)"><path d="M0,0v14h14V0H0z M12,12H2V2h10V12z"/></g></g>
<g transform="translate(16,192)"><g transform="scale(4)"><path d="M0,0v14h14V0H0z M12,12H2V2h10V12z"/></g></g>
<g transform="translate(32,32)"><g transform="scale(4)"><rect width="6" height="6"/></g></g>
<g transform="translate(208,32)"><g transform="scale(4)"><rect width="6" height="6"/></g></g>
<g transform="translate(32,208)"><g transform="scale(4)"><rect width="6" height="6"/></g></g>
</g></svg>
