<svg xmlns="http://www.w3.org/2000/svg" viewBox="0 0 512 512"><path d="M512 256c0 22.2-19.6 41.5-25.1 61.9-5.6 21.1 1.5 47.6-9.2 66.1-10.9 18.8-37.5 25.8-52.7 41-15.2 15.2-22.2 41.9-41 52.7-18.5 10.7-45 3.5-66.1 9.2-20.4 5.5-39.7 25.1-61.9 25.1-22.2 0-41.4-19.6-61.9-25.1-21.1-5.7-47.6 1.5-66.1-9.2-18.8-10.9-25.8-37.5-41-52.7-15.2-15.2-41.9-22.2-52.7-41-10.7-18.5-3.5-45-9.2-66.1C19.6 297.4 0 278.2 0 256c0-22.2 19.6-41.4 25.1-61.9 5.7-21.2-1.5-47.6 9.2-66.1 10.9-18.8 37.5-25.7 52.7-41 15.2-15.2 22.2-41.9 41-52.7 18.5-10.7 45-3.5 66.1-9.2C214.6 19.6 233.8 0 256 0c22.2 0 41.4 19.6 61.9 25.1 21.1 5.6 47.6-1.5 66.1 9.2 18.8 10.9 25.7 37.5 41 52.7 15.2 15.2 41.9 22.2 52.7 41 10.7 18.5 3.5 45 9.2 66.1 5.5 20.4 25.1 39.7 25.1 61.9z" fill="#00FF00"/></svg>
